HIERARCHY
ROOT hip
{
  OFFSET 0 0 0
  CHANNELS 6 Xposition Yposition Zposition Zrotation Yrotation Xrotation
  JOINT abdomen
  {
    OFFSET 0 20.6881 -0.73152
    CHANNELS 3 Zrotation Xrotation Yrotation
    JOINT chest
    {
      OFFSET 0 11.7043 -0.48768
      CHANNELS 3 Zrotation Xrotation Yrotation
      JOINT neck
      {
        OFFSET 0 22.1894 -2.19456
        CHANNELS 3 Zrotation Xrotation Yrotation
        JOINT head
        {
          OFFSET -0.24384 7.07133 1.2192
          CHANNELS 3 Zrotation Xrotation Yrotation
          JOINT leftEye
          {
            OFFSET 4.14528 8.04674 8.04672
            CHANNELS 3 Zrotation Xrotation Yrotation
            End Site
            {
              OFFSET 1 0 0
            }
          }
          JOINT rightEye
          {
            OFFSET -3.6576 8.04674 8.04672
            CHANNELS 3 Zrotation Xrotation Yrotation
            End Site
            {
              OFFSET 1 0 0
            }
          }
        }
      }
      JOINT rCollar
      {
        OFFSET -2.68224 19.2634 -4.8768
        CHANNELS 3 Zrotation Xrotation Yrotation
        JOINT rShldr
        {
          OFFSET -8.77824 -1.95073 1.46304
          CHANNELS 3 Zrotation Xrotation Yrotation
          JOINT rForeArm
          {
            OFFSET -28.1742 -1.7115 0.48768
            CHANNELS 3 Zrotation Xrotation Yrotation
            JOINT rHand
            {
              OFFSET -22.5879 0.773209 7.07136
              CHANNELS 3 Zrotation Xrotation Yrotation
              JOINT rThumb1
              {
                OFFSET -1.2192 -0.487915 3.41376
                CHANNELS 3 Zrotation Xrotation Yrotation
                JOINT rThumb2
                {
                  OFFSET -3.37035 -0.52449 3.41376
                  CHANNELS 3 Zrotation Xrotation Yrotation
                  End Site
                  {
                    OFFSET -1.78271 -1.18214 1.43049
                  }
                }
              }
              JOINT rIndex1
              {
                OFFSET -7.75947 0.938293 5.60832
                CHANNELS 3 Zrotation Xrotation Yrotation
                JOINT rIndex2
                {
                  OFFSET -2.54057 -0.884171 1.56538
                  CHANNELS 3 Zrotation Xrotation Yrotation
                  End Site
                  {
                    OFFSET -1.62519 -0.234802 1.16502
                  }
                }
              }
              JOINT rMid1
              {
                OFFSET -8.24714 1.18213 3.41376
                CHANNELS 3 Zrotation Xrotation Yrotation
                JOINT rMid2
                {
                  OFFSET -3.10165 -0.590103 1.0647
                  CHANNELS 3 Zrotation Xrotation Yrotation
                  End Site
                  {
                    OFFSET -2.48547 -0.328903 0.83742
                  }
                }
              }
              JOINT rRing1
              {
                OFFSET -8.82822 0.546677 1.51678
                CHANNELS 3 Zrotation Xrotation Yrotation
                JOINT rRing2
                {
                  OFFSET -2.60934 -0.819778 -0.0198488
                  CHANNELS 3 Zrotation Xrotation Yrotation
                  End Site
                  {
                    OFFSET -2.33842 -0.294052 0.168128
                  }
                }
              }
              JOINT rPinky1
              {
                OFFSET -8.27202 -0.0477905 -0.4584
                CHANNELS 3 Zrotation Xrotation Yrotation
                JOINT rPinky2
                {
                  OFFSET -1.82734 -0.647385 -0.700984
                  CHANNELS 3 Zrotation Xrotation Yrotation
                  End Site
                  {
                    OFFSET -1.69225 -0.51767 -0.607171
                  }
                }
              }
            }
          }
        }
      }
      JOINT lCollar
      {
        OFFSET 2.68224 19.2634 -4.8768
        CHANNELS 3 Zrotation Xrotation Yrotation
        JOINT lShldr
        {
          OFFSET 8.77824 -1.95073 1.46304
          CHANNELS 3 Zrotation Xrotation Yrotation
          JOINT lForeArm
          {
            OFFSET 28.1742 -1.7115 0.48768
            CHANNELS 3 Zrotation Xrotation Yrotation
            JOINT lHand
            {
              OFFSET 22.5879 0.773209 7.07136
              CHANNELS 3 Zrotation Xrotation Yrotation
              JOINT lThumb1
              {
                OFFSET 1.2192 -0.487915 3.41376
                CHANNELS 3 Zrotation Xrotation Yrotation
                JOINT lThumb2
                {
                  OFFSET 3.37035 -0.52449 3.41376
                  CHANNELS 3 Zrotation Xrotation Yrotation
                  End Site
                  {
                    OFFSET 1.78271 -1.18214 1.43049
                  }
                }
              }
              JOINT lIndex1
              {
                OFFSET 7.75947 0.938293 5.60832
                CHANNELS 3 Zrotation Xrotation Yrotation
                JOINT lIndex2
                {
                  OFFSET 2.54057 -0.884171 1.56538
                  CHANNELS 3 Zrotation Xrotation Yrotation
                  End Site
                  {
                    OFFSET 1.62519 -0.234802 1.16502
                  }
                }
              }
              JOINT lMid1
              {
                OFFSET 8.24714 1.18213 3.41376
                CHANNELS 3 Zrotation Xrotation Yrotation
                JOINT lMid2
                {
                  OFFSET 3.10165 -0.590103 1.0647
                  CHANNELS 3 Zrotation Xrotation Yrotation
                  End Site
                  {
                    OFFSET 2.48547 -0.328903 0.83742
                  }
                }
              }
              JOINT lRing1
              {
                OFFSET 8.82822 0.546677 1.51678
                CHANNELS 3 Zrotation Xrotation Yrotation
                JOINT lRing2
                {
                  OFFSET 2.60934 -0.819778 -0.0198488
                  CHANNELS 3 Zrotation Xrotation Yrotation
                  End Site
                  {
                    OFFSET 2.33842 -0.294052 0.168128
                  }
                }
              }
              JOINT lPinky1
              {
                OFFSET 8.27202 -0.0477905 -0.4584
                CHANNELS 3 Zrotation Xrotation Yrotation
                JOINT lPinky2
                {
                  OFFSET 1.82734 -0.647385 -0.700984
                  CHANNELS 3 Zrotation Xrotation Yrotation
                  End Site
                  {
                    OFFSET 1.69225 -0.51767 -0.607171
                  }
                }
              }
            }
          }
        }
      }
    }
  }
  JOINT rButtock
  {
    OFFSET -8.77824 4.35084 1.2192
    CHANNELS 3 Zrotation Xrotation Yrotation
    JOINT rThigh
    {
      OFFSET 0 -1.70687 -2.19456
      CHANNELS 3 Zrotation Xrotation Yrotation
      JOINT rShin
      {
        OFFSET 0 -36.8199 0.73152
        CHANNELS 3 Zrotation Xrotation Yrotation
        JOINT rFoot
        {
          OFFSET 0.73152 -45.1104 -5.12064
          CHANNELS 3 Zrotation Xrotation Yrotation
          End Site
          {
            OFFSET -1.1221 -3.69964 12.103
          }
        }
      }
    }
  }
  JOINT lButtock
  {
    OFFSET 8.77824 4.35084 1.2192
    CHANNELS 3 Zrotation Xrotation Yrotation
    JOINT lThigh
    {
      OFFSET 0 -1.70687 -2.19456
      CHANNELS 3 Zrotation Xrotation Yrotation
      JOINT lShin
      {
        OFFSET 0 -36.8199 0.73152
        CHANNELS 3 Zrotation Xrotation Yrotation
        JOINT lFoot
        {
          OFFSET -0.73152 -45.1104 -5.12064
          CHANNELS 3 Zrotation Xrotation Yrotation
          End Site
          {
            OFFSET 1.1221 -3.69964 12.103
          }
        }
      }
    }
  }
}
MOTION
Frames:	9
Frame Time:	0.00833333
0.0 0.0 0.0 0.0 0.0 0.0 0.0 0.0 0.0 0.0 0.0 0.0 0.0 0.0 0.0 0.0 0.0 0.0 0.0 0.0 0.0 0.0 0.0 0.0 0.0 0.0 0.0 0.0 0.0 0.0 0.0 0.0 0.0 0.0 0.0 0.0 0.0 0.0 0.0 0.0 0.0 0.0 0.0 0.0 0.0 0.0 0.0 0.0 0.0 0.0 0.0 0.0 0.0 0.0 0.0 0.0 0.0 0.0 0.0 0.0 0.0 0.0 0.0 0.0 0.0 0.0 0.0 0.0 0.0 0.0 0.0 0.0 0.0 0.0 0.0 0.0 0.0 0.0 0.0 0.0 0.0 0.0 0.0 0.0 0.0 0.0 0.0 0.0 0.0 0.0 0.0 0.0 0.0 0.0 0.0 0.0 0.0 0.0 0.0 0.0 0.0 0.0 0.0 0.0 0.0 0.0 0.0 0.0 0.0 0.0 0.0 0.0 0.0 0.0 0.0 0.0 0.0 0.0 0.0 0.0 0.0 0.0 0.0 0.0 0.0 0.0 0.0 0.0 0.0 0.0 0.0 0.0
5.8599 60.948 -182.905 -9.341624 -27.191726 6.34291 -1.981823 1.008384 74.213729 0.36509 -2.28207 -71.073239 4.997606 5.501028 43.534726 -7.554167 -2.10581 -51.269034 -0.004992 0.0 -0.000808 -0.004452 -0.0 0.002234 -40.039557 -86.056073 -61.570862 0.678987 26.549016 -0.719113 -10.678689 61.564766 22.399082 -2.414204 10.286749 0.247282 -7.757391 7.439733 1.681012 -83.026593 19.084692 77.342359 -149.659892 -14.029355 120.542233 -87.979256 56.520801 69.158271 -161.518743 -9.304217 143.625642 9.969868 -20.333331 -1.139296 -67.608226 -72.074725 -84.373794 13.999379 27.251398 -0.791477 -150.580216 31.03401 -146.362296 56.161866 82.342227 -19.274401 159.221282 -48.725062 -170.567221 178.394026 -14.272705 -174.499742 175.80788 83.662769 -137.38592 -164.885238 -26.320046 -142.24712 -76.385189 -49.199776 -28.871152 27.156177 0.631046 11.725456 -2.32523 -3.868006 1.259229 37.184073 43.089085 -27.935021 161.154168 -8.16052 -143.46516 -179.882402 -48.693622 -140.892519 72.351253 72.975426 -90.217764 159.839787 0.078317 -176.243363 5.517248 -12.596112 5.174363 159.309259 55.601208 150.034594 -4e-06 -0.000774 6e-06 -3.82525 1.127822 -0.000692 -0.12328 8.191977 -5.663449 -154.946421 -26.352474 18.754411 4e-05 -0.000774 4e-05 5.161644 -22.515838 -0.0 -10.612334 25.526477 -34.744682 -36.751962 -55.385399 48.209331
5.865200000000001 60.94690000000001 -182.90599999999998 -9.319692 -27.192876 6.338268 0.496131 4.890666 46.709049 -0.710034 -4.085974 -40.13608 7.560586 21.088113 116.377147 -18.801793 16.420851 -130.664611 0.005008 -0.0 -0.005125 -0.000977 0.0 -0.000584 -81.70757 68.335907 84.818944 -126.754525 26.118315 130.939073 -169.336225 45.24606 -164.487754 -5.116001 21.243663 0.896815 -85.83045 38.630184 47.954618 26.95328 -29.508519 21.374628 -90.227163 41.072123 75.795835 10.768859 -8.11091 -5.99412 -36.036643 51.722896 29.832567 2.83671 1.674348 0.297851 -145.118323 0.267746 -179.212427 12.072641 36.619688 -4.848952 -87.575691 -50.20768 -85.929639 4.197965 2.115525 -0.412953 28.700779 57.499141 -31.079249 161.001859 -26.281931 -139.676613 147.337849 -1.762044 -154.127057 -43.76418 -59.441978 -32.891672 5.433969 5.264845 -1.077685 -12.422106 -15.043357 5.51764 -60.462094 -70.523453 -15.711433 163.954196 -27.409669 -113.955272 36.035578 51.723304 -29.832099 -11.576182 -24.900419 1.45809 72.089622 -72.142076 89.072716 -12.160857 45.172949 -2.491577 124.852698 -29.040104 122.623115 -43.820959 79.569594 6.931684 6e-06 0.000818 -8e-06 -7.842474 3.693933 64.932307 18.533784 9.236348 -93.864038 150.661821 -19.144059 -2.549244 -5.5e-05 0.000818 -5.5e-05 20.747065 -37.712313 -58.267638 -59.03687 3.971425 -92.087901 -91.23211 13.804135 175.519946
5.891 60.9456 -182.89 -9.139294 -27.205792 6.228562 5.023652 7.812054 -32.891519 3.241496 -4.407699 42.451755 2.054676 30.300497 156.642091 -12.858491 32.344447 -177.420865 -0.002092 0.0 -0.000911 -0.001896 -0.0 0.002943 -132.7768 52.552689 136.71823 -103.7969 32.215678 89.094876 3.551336 -45.67842 -65.658938 161.533299 -32.170364 140.586047 -168.135786 -5.815503 89.871641 115.546383 -59.871777 83.662294 -155.192839 -24.300092 122.143004 -78.803924 57.448572 61.836063 -1.809939 5.118926 1.057292 80.545603 -78.000526 52.06618 -13.615815 -53.68064 -25.67897 14.061119 0.082412 -2.187598 -146.226736 15.470038 -142.748116 -137.566731 -12.829274 -133.828051 -3.446121 -62.740826 13.274991 -43.181491 12.098958 39.716615 2.217195 33.434975 -25.009873 5.215618 31.962864 -2.61011 -4.41724 -4.40047 0.51298 7.085506 7.365981 -3.182842 69.682363 43.292553 -57.342176 38.709992 44.608239 -23.006506 152.826877 14.793329 -138.514768 -2.453203 2.442133 -0.685708 145.111977 -0.667189 178.91614 -11.617259 20.3259 6.656335 -4.052974 11.638757 -3.675319 -8.109588 18.521793 -4.677991 0.001078 -0.000915 -0.001386 -10.490059 5.941325 97.060095 30.059469 -4.384863 -115.767018 -92.177557 -6.785548 4.44731 -179.997615 75.748903 -0.0 -151.424584 17.890149 -113.305587 -70.5308 -15.936339 -176.249943 -13.432845 -55.051824 -104.414429
5.8575 60.9457 -182.90900000000002 -9.299457 -27.190419 6.349378 2.801092 6.002182 130.868195 -5.051704 -1.140572 -119.160618 1.806078 32.634999 154.056237 -15.152374 35.005389 -179.922843 -0.003434 0.0 -0.001026 -0.003434 0.0 -0.001026 -80.166212 68.371726 83.260831 -168.443037 -10.833097 107.754155 -122.617915 -0.138402 162.983637 26.29394 -48.239968 16.915545 -67.03416 37.762802 34.644062 73.724556 -49.83252 23.923888 -152.813 -19.873503 121.571643 95.831846 -70.679036 42.457041 -8.414864 20.880817 5.644695 -5.922523 23.543518 5.124712 0.000755 -0.060756 -0.019725 -140.359215 60.456339 154.515907 -25.537938 -38.087951 -24.597278 -42.67582 -50.772481 -43.689551 -4.225239 -44.097121 8.51604 95.29183 -19.550128 143.202242 -100.656784 46.871075 103.657411 166.621 58.925168 -145.128176 2.890094 2.827885 -0.512806 -51.961408 -70.511908 10.438564 2.686076 4.226852 -1.583503 9.900405 25.411566 -8.187829 4.788327 12.797838 -3.003612 172.02859 -31.352841 -144.098514 145.108088 3.758475 -179.69082 -7.883881 -18.559054 11.681072 25.538602 -38.087083 24.599013 -40.367687 81.367549 2.943997 -0.000796 0.000305 -0.001194 -12.165904 8.38273 74.090961 48.726185 6.246384 96.659889 -150.199946 18.886751 -137.031133 -179.748504 75.750192 -0.193841 -147.671074 7.013921 87.763837 76.02985 4.044285 -112.167475 107.723423 9.782229 -22.913439
5.8439 60.9447 -182.907 -9.269924 -27.17955 6.343327 3.684977 6.182117 149.118325 -4.914299 0.603118 -136.556243 5.843951 24.185305 91.318928 -29.29031 8.663331 -122.588505 -0.000619 0.0 -0.000799 -0.000619 0.0 -0.000799 -159.222295 -48.7251 170.566697 -48.685656 -2.995531 -33.134186 163.026461 25.223491 -132.22919 -19.199305 54.837182 8.410067 82.305081 -50.136093 32.955201 -159.206341 -29.319646 127.930329 169.567421 -65.842277 109.95662 1.12339 24.348994 -1.607179 -160.673478 -6.667634 143.245774 167.279023 -63.97619 132.40535 -0.006267 3.557331 1.118001 -156.403049 -13.733179 173.48724 0.099326 0.25777 0.09387 10.569688 26.685447 6.26347 -1.62392 -11.081956 2.305783 91.972235 -12.827224 175.360973 -20.997677 -1.913133 59.128218 -163.300641 -19.342908 -145.994186 -1.589088 -1.576324 0.222888 -3.506345 -5.233098 3.975333 43.647715 38.804343 -34.059383 155.603895 2.373735 -110.761849 151.477483 17.842058 -137.539316 -86.525109 -77.988124 -57.712795 145.118514 0.185863 179.18565 -11.806324 26.400982 5.994929 26.5613 -38.861923 25.604975 153.515449 36.047999 147.883144 0.00032 0.000134 -0.000411 -12.651465 9.516215 53.627572 47.602372 21.579776 105.186684 32.895033 24.084369 148.857955 0.003911 0.000324 0.005866 67.672522 -49.575572 -0.0 -86.433471 19.35486 -8.934516 64.887506 86.122748 19.299899
5.8249 60.9442 -182.91 -9.266495 -27.174911 6.355058 4.846808 5.746922 -180.0 -2.660163 2.659402 -167.60376 6.030998 25.585199 99.734985 -29.208012 13.015616 -129.771634 0.00071 0.0 0.00139 0.000541 -0.0 -0.002828 -136.301883 48.979787 140.373695 -96.326921 20.508191 70.650334 116.110236 37.888471 -100.859736 -108.437467 76.767709 90.30434 -7.352429 7.061626 1.571115 -75.134928 22.388406 70.348002 37.216182 -57.917632 -0.640511 -166.734264 -29.96958 111.913021 -162.26881 -11.677718 143.934949 -161.254827 1.255744 142.229171 -145.117645 0.18548 -179.186435 11.942594 52.991448 -2.685638 -162.89363 73.157065 -150.761538 -94.946132 -50.677429 -93.198146 -3.541627 -62.053047 13.039576 -39.374434 -11.330537 53.296481 -36.842825 9.994979 -12.141481 109.777226 79.59578 -94.49989 -71.831308 -48.264224 -25.79092 108.988307 35.283002 -75.591848 77.667017 43.029341 -64.538761 -0.640185 8.670039 2.807782 0.200063 0.580083 -0.111476 2.136135 14.742897 -2.64495 66.423216 72.873265 -84.002125 157.811899 -37.29891 178.347159 46.801154 -48.625014 45.559361 129.660829 -25.938604 128.519301 -0.000339 -0.000288 0.000436 -12.597223 9.416421 53.79177 39.175563 26.850257 -161.395265 103.67877 44.120128 5.150817 -0.000339 -0.000288 0.000436 65.069874 -50.351943 70.307496 74.910257 74.626214 11.14099 -14.007328 -62.286752 -104.435782
5.8101 60.9417 -182.90900000000002 -9.237951 -27.172076 6.366797 4.626371 5.346288 -180.0 -2.506634 2.410935 -168.068537 -10.000591 33.843764 -140.83512 20.075374 34.838338 105.974598 -0.00357 -0.0 3e-06 0.002157 -0.0 -7.3e-05 -2.646279 13.400452 3.318035 -98.302098 4.303112 167.506134 -86.790023 -37.09904 -96.602733 21.423862 -42.218053 12.983657 -2.815023 2.753735 0.498251 -150.770372 -60.254706 117.965962 -160.0175 -33.011606 122.69717 -13.98578 39.479493 5.807041 173.122174 -66.297509 137.615061 143.804856 -74.469619 112.190857 -145.100442 -1.521524 -178.651006 -150.976695 -31.740847 -173.877937 -154.164035 45.105897 -148.908106 -40.136133 -47.863116 -40.22609 9.651538 34.836107 -11.19969 -76.657867 1.033853 -39.258921 -81.541085 -48.154852 -81.84633 153.238236 70.340246 -134.701122 -8.818607 -8.810716 0.68429 -29.43454 -64.844168 25.079033 145.024414 -5.716863 -118.523399 -30.880041 -39.561452 7.492388 167.375382 -28.008435 -145.269287 2.315341 14.681193 -3.023962 145.100645 -1.523118 178.649846 66.701136 87.68458 -80.090005 138.055764 -7.112281 135.294079 -72.689403 84.142616 34.212735 179.979149 75.749064 0.014267 120.188152 78.333424 -37.529624 -50.091096 0.42501 -91.137361 15.29305 33.806338 147.607446 -0.000976 -0.000381 -0.0 62.943544 -49.618217 -21.637351 -82.630469 14.381118 161.798067 -4.957693 -25.272378 -77.963261
5.7945 60.9404 -182.904 -9.202827 -27.191751 6.361905 3.252854 5.439349 149.054527 -4.461249 0.349806 -137.325535 -14.298066 29.887197 -108.47612 29.806135 22.624194 75.340403 0.000254 -0.0 -0.001501 0.000175 0.0 0.002469 -155.61367 -4.236131 161.99195 133.728556 3.873439 169.144063 176.062023 -3.567157 105.574717 164.577156 -24.378724 143.046835 -19.688195 17.543838 5.975402 45.550873 -49.29174 -4.40289 7.3701 -12.802563 -3.565181 -112.592055 38.223787 89.468639 -0.339213 0.98192 0.190287 2.676509 1.65203 0.198869 0.00059 -0.018743 -0.004474 5.516268 36.632784 6.324137 -26.564834 -38.86098 -25.605363 -167.267207 72.43323 -147.189204 159.222281 -48.72523 -170.566148 76.938782 -34.482904 52.981919 176.217401 -2.561279 154.930256 8.031348 42.093724 -3.986662 7.758002 7.439335 -1.681961 102.598059 5.879692 -93.825243 19.169597 24.114961 -13.38057 166.100887 -16.096001 -110.478097 82.839797 61.111289 -74.532632 7.208355 26.187293 -6.236615 145.119749 0.26831 179.211267 141.831108 -56.542956 163.975329 -17.321618 60.659899 -12.790823 155.323807 35.843405 147.526802 -0.002069 2.9e-05 -0.003103 -11.113171 6.895678 180.0 -14.174363 -44.163949 -80.604462 -119.607912 -22.685902 -175.925558 -179.996857 75.75038 -0.003243 -147.600797 7.262876 75.231669 86.274243 9.941126 32.89184 12.843362 68.078415 -117.462997
